<?xml version="1.0" encoding="utf-8"?>
<!-- Generator: Adobe Illustrator 27.6.1, SVG Export Plug-In . SVG Version: 6.00 Build 0)  -->
<svg version="1.1" id="Layer_1" xmlns="http://www.w3.org/2000/svg" xmlns:xlink="http://www.w3.org/1999/xlink" x="0px" y="0px"
	 viewBox="0 0 1293.96 333.38" style="enable-background:new 0 0 1293.96 333.38;" xml:space="preserve">
<style type="text/css">
	.st0{display:none;}
	.st1{display:inline;}
	.st2{display:inline;fill:#ED1C24;}
	.st3{fill:#ED1C24;}
	.st4{display:inline;fill:#EAEAEA;}
	.st5{fill:#F4F4F5;}
</style>
<g class="st0">
	<path class="st1" d="M129.32-1069.13H68.84c-5.32,0-7.99-2.35-9.29-4.31c-1.47-2.22-1.66-4.59-1.66-6.39v-36.89
		c0-4.86,2.21-7.24,4.06-8.39c2.18-1.35,4.45-1.35,5.67-1.35h51.96v-3.99H59.59c0,0-1.88-9.73,8.2-9.73c11.85,0,52.58,0,52.58,0
		c1.24-0.01,4.16-0.03,6.46,2.26c1.64,1.63,2.48,3.94,2.48,6.87v14.34H67.62v36.89c0,0.42,0.02,0.69,0.04,0.86
		c0.21,0.05,0.59,0.11,1.18,0.11h50.74v-3.41c0,0,2.38,0,0.23,0c-8.18,0-7.64-8.07-7.64-8.07h17.14V-1069.13z"/>
	<path class="st1" d="M81.17-1082.28c0,0-9.73-0.02-9.73-7.94c0-6.94,0-24.14,0-24.14s9.73-0.74,9.73,8.07
		C81.17-1096.31,81.17-1082.28,81.17-1082.28z"/>
	<path class="st1" d="M107.15-1082.28H93.02c-2.72,0-4.73-0.7-6.16-2.13c-1.89-1.89-1.88-4.2-1.87-5.31l0-0.12v-6.11
		c0-3.01,1.84-6.53,7.03-6.53h29.23v-3.82c0,0-19.1,0-22.96,0c-5.98,0-5.77-8.06-5.77-8.06h30.25c1.51,0,2.96,0.48,4.08,1.36
		c0.92,0.71,2.45,2.37,2.45,5.43l0,6.48c0,0.89,0.01,2.98-1.69,4.69c-1.34,1.34-3.29,1.99-5.97,1.99h-28.6v4.07c0,0,5.69,0,6.05,0
		C105.24-1090.34,107.15-1082.28,107.15-1082.28z M121.25-1107.63L121.25-1107.63L121.25-1107.63z"/>
	<circle class="st2" cx="108.54" cy="-1086.47" r="5.85"/>
	<g class="st1">
		<polygon class="st3" points="305.65,-1113.55 296.33,-1104.83 292.99,-1095.05 327.89,-1095.05 324.31,-1109.82 		"/>
		<polygon class="st3" points="414.78,-1113.55 405.46,-1104.83 402.12,-1095.05 437.01,-1095.05 433.44,-1109.82 		"/>
		<path d="M163.77-1101.71c2.57-3.36,8.8-10.28,8.8-17.9c0-6.63-4.15-12.56-12.76-12.56c-10.98,0-13.65,10.58-13.65,10.58
			l-7.12-2.67c0,0,3.96-15.62,20.77-15.62c12.76,0,21.06,8.8,21.06,20.27c0,9.3-5.74,15.82-7.22,17.9l-18.39,24.52h26.11v7.71
			h-41.93L163.77-1101.71z"/>
		<path d="M186.81-1116.35h8.9v-13.94h8.31v13.94h14.24v7.52h-14.24v24.62c0,4.45,2.18,7.02,6.63,7.02c2.57,0,5.24-1.88,5.24-1.88
			l3.07,6.82c-3.96,2.18-6.82,2.77-9.49,2.77c-6.53,0-13.75-4.25-13.75-14.34v-25.02h-8.9V-1116.35z"/>
		<path d="M228.93-1117.14l12.26,29.57l12.06-29.57h5.64l12.16,29.57l12.16-29.57h8.51l-20.87,47.66l-15.03-34.31l-15.03,34.31
			l-20.87-47.66H228.93z"/>
		<path d="M332.88-1093.21c0,0.89,0,1.58-0.1,2.67H295.9c0.49,6.92,7.12,13.35,15.72,13.35c9,0,13.75-6.72,13.75-6.72l5.24,5.44
			c0,0-6.92,9-18.99,9c-13.85,0-23.83-10.48-23.83-24.03c0-13.35,9.1-24.03,22.84-24.03
			C323.39-1117.53,332.88-1107.94,332.88-1093.21z M324.78-1097.46c-0.3-5.14-4.95-12.36-14.14-12.36
			c-9.89,0-13.94,7.61-14.54,12.36H324.78z"/>
		<path d="M338.01-1140.19h8.3v70.72h-8.3V-1140.19z"/>
		<path d="M360.53-1117.14l14.04,30.95l14.04-30.95h8.51l-22.85,47.66l-22.84-47.66H360.53z"/>
		<path d="M442.11-1093.21c0,0.89,0,1.58-0.1,2.67h-36.88c0.49,6.92,7.12,13.35,15.72,13.35c9,0,13.75-6.72,13.75-6.72l5.24,5.44
			c0,0-6.92,9-18.99,9c-13.84,0-23.83-10.48-23.83-24.03c0-13.35,9.1-24.03,22.85-24.03
			C432.62-1117.53,442.11-1107.94,442.11-1093.21z M434.01-1097.46c-0.3-5.14-4.95-12.36-14.14-12.36
			c-9.89,0-13.94,7.61-14.54,12.36H434.01z"/>
	</g>
</g>
<g class="st0">
	<rect y="-1354.66" class="st4" width="500" height="500"/>
	<g class="st1">
		<path d="M405.43-950.01H142.23c-23.17,0-34.78-10.21-40.44-18.77c-6.4-9.68-7.22-19.96-7.22-27.83v-160.57
			c0-21.14,9.62-31.52,17.69-36.51c9.48-5.86,19.37-5.86,24.68-5.86h226.13v-17.38H101.98c0,0-8.2-42.37,35.71-42.37
			c51.56,0,228.84,0,228.84,0c5.41-0.04,18.11-0.13,28.14,9.82c7.15,7.1,10.77,17.16,10.77,29.9v62.39h-268.5v160.57
			c0,1.84,0.08,3.01,0.17,3.76c0.93,0.22,2.55,0.48,5.12,0.48h220.84v-14.83c0,0,10.37,0,1,0c-35.61,0-33.24-35.12-33.24-35.12
			h74.61V-950.01z"/>
		<path d="M195.91-1007.25c0,0-42.37-0.1-42.37-34.54c0-30.21,0-105.07,0-105.07s42.37-3.21,42.37,35.13
			C195.91-1068.33,195.91-1007.25,195.91-1007.25z"/>
		<path d="M308.98-1007.25h-61.49c-11.82,0-20.59-3.03-26.81-9.27c-8.21-8.23-8.17-18.28-8.16-23.11l0-0.51v-26.58
			c0-13.12,8.02-28.43,30.61-28.43h127.21v-16.63c0,0-83.12,0-99.93,0c-26.02,0-25.09-35.09-25.09-35.09H377
			c6.58,0,12.89,2.1,17.77,5.9c3.98,3.11,10.66,10.31,10.66,23.62l0,28.19c0.01,3.89,0.04,12.98-7.37,20.42
			c-5.82,5.84-14.31,8.67-25.97,8.67H247.61v17.72c0,0,24.75,0,26.32,0C300.67-1042.34,308.98-1007.25,308.98-1007.25z
			 M370.34-1117.6L370.34-1117.6L370.34-1117.6z"/>
		<circle class="st3" cx="315" cy="-1025.49" r="25.45"/>
	</g>
</g>
<g>
	<polygon class="st3" points="698.96,130.92 660.76,166.69 647.06,206.78 790.12,206.78 775.48,146.24 	"/>
	<polygon class="st3" points="1146.33,130.92 1108.12,166.69 1094.43,206.78 1237.48,206.78 1222.84,146.24 	"/>
	<path class="st5" d="M117.35,179.48c10.55-13.78,36.08-42.16,36.08-73.37c0-27.16-17.02-51.48-52.29-51.48
		C56.14,54.62,45.19,98,45.19,98L16,87.05c0,0,16.22-64.05,85.13-64.05c52.29,0,86.35,36.08,86.35,83.11
		c0,38.11-23.51,64.86-29.59,73.37L82.5,280.02h107.02v31.62H17.63L117.35,179.48z"/>
	<path class="st5" d="M211.8,119.48h36.48V62.32h34.06v57.16h58.38v30.81h-58.38v100.94c0,18.24,8.92,28.78,27.16,28.78
		c10.53,0,21.48-7.7,21.48-7.7l12.57,27.97c-16.22,8.92-27.97,11.36-38.92,11.36c-26.76,0-56.35-17.43-56.35-58.78V150.29H211.8
		V119.48z"/>
	<path class="st5" d="M384.48,116.24l50.28,121.21l49.46-121.21h23.11l49.86,121.21l49.86-121.21h34.87l-85.54,195.4l-61.62-140.67
		l-61.61,140.67l-85.54-195.4H384.48z"/>
	<path class="st5" d="M810.61,214.34c0,3.65,0,6.49-0.41,10.94H659c2.03,28.38,29.19,54.73,64.46,54.73
		c36.88,0,56.35-27.57,56.35-27.57l21.48,22.29c0,0-28.38,36.9-77.83,36.9c-56.76,0-97.7-42.97-97.7-98.51
		c0-54.73,37.29-98.51,93.64-98.51C771.7,114.62,810.61,153.94,810.61,214.34z M777.38,196.91c-1.22-21.08-20.28-50.67-57.97-50.67
		c-40.55,0-57.16,31.22-59.6,50.67H777.38z"/>
	<path class="st5" d="M831.61,21.74h34.04v289.9h-34.04V21.74z"/>
	<path class="st5" d="M923.94,116.24l57.57,126.89l57.57-126.89h34.87l-93.65,195.4l-93.64-195.4H923.94z"/>
	<path class="st5" d="M1258.38,214.34c0,3.65,0,6.49-0.41,10.94h-151.21c2.03,28.38,29.19,54.73,64.46,54.73
		c36.88,0,56.35-27.57,56.35-27.57l21.48,22.29c0,0-28.38,36.9-77.83,36.9c-56.76,0-97.71-42.97-97.71-98.51
		c0-54.73,37.3-98.51,93.65-98.51C1219.47,114.62,1258.38,153.94,1258.38,214.34z M1225.15,196.91
		c-1.22-21.08-20.28-50.67-57.97-50.67c-40.55,0-57.16,31.22-59.6,50.67H1225.15z"/>
</g>
</svg>
